<mxfile host="app.diagrams.net" agent="Mozilla/5.0 (Windows NT 10.0; Win64; x64; rv:133.0) Gecko/20100101 Firefox/133.0" version="25.0.3">
  <diagram id="C5RBs43oDa-KdzZeNtuy" name="Page-1">
    <mxGraphModel dx="1562" dy="865" grid="0" gridSize="10" guides="1" tooltips="1" connect="1" arrows="1" fold="1" page="1" pageScale="1" pageWidth="827" pageHeight="1169" math="0" shadow="0">
      <root>
        <mxCell id="WIyWlLk6GJQsqaUBKTNV-0" />
        <mxCell id="WIyWlLk6GJQsqaUBKTNV-1" parent="WIyWlLk6GJQsqaUBKTNV-0" />
        <mxCell id="x7RqncecBhT4SDe1gUMY-16" style="edgeStyle=orthogonalEdgeStyle;rounded=0;orthogonalLoop=1;jettySize=auto;html=1;exitX=0.5;exitY=1;exitDx=0;exitDy=0;entryX=0.5;entryY=0;entryDx=0;entryDy=0;" edge="1" parent="WIyWlLk6GJQsqaUBKTNV-1" source="WIyWlLk6GJQsqaUBKTNV-3" target="x7RqncecBhT4SDe1gUMY-0">
          <mxGeometry relative="1" as="geometry" />
        </mxCell>
        <mxCell id="WIyWlLk6GJQsqaUBKTNV-3" value="Skapa en lista för att innehålla sökträffar ([matchlistan])" style="rounded=1;whiteSpace=wrap;html=1;fontSize=12;glass=0;strokeWidth=1;shadow=0;fillColor=#bac8d3;strokeColor=#23445d;" parent="WIyWlLk6GJQsqaUBKTNV-1" vertex="1">
          <mxGeometry x="345" y="130" width="120" height="50" as="geometry" />
        </mxCell>
        <mxCell id="x7RqncecBhT4SDe1gUMY-17" style="edgeStyle=orthogonalEdgeStyle;rounded=0;orthogonalLoop=1;jettySize=auto;html=1;exitX=0.5;exitY=1;exitDx=0;exitDy=0;entryX=0.5;entryY=0;entryDx=0;entryDy=0;" edge="1" parent="WIyWlLk6GJQsqaUBKTNV-1" source="x7RqncecBhT4SDe1gUMY-0" target="x7RqncecBhT4SDe1gUMY-6">
          <mxGeometry relative="1" as="geometry" />
        </mxCell>
        <mxCell id="x7RqncecBhT4SDe1gUMY-0" value="Läs in [sökord]" style="shape=parallelogram;perimeter=parallelogramPerimeter;whiteSpace=wrap;html=1;fixedSize=1;fillColor=#bac8d3;strokeColor=#23445d;" vertex="1" parent="WIyWlLk6GJQsqaUBKTNV-1">
          <mxGeometry x="345" y="220" width="119" height="30" as="geometry" />
        </mxCell>
        <mxCell id="x7RqncecBhT4SDe1gUMY-2" value="* Utgår från [inläggslistan] i programmet *" style="text;html=1;align=center;verticalAlign=middle;whiteSpace=wrap;rounded=0;" vertex="1" parent="WIyWlLk6GJQsqaUBKTNV-1">
          <mxGeometry x="219" y="47.75" width="150" height="30" as="geometry" />
        </mxCell>
        <mxCell id="x7RqncecBhT4SDe1gUMY-26" style="edgeStyle=orthogonalEdgeStyle;shape=connector;curved=0;rounded=1;orthogonalLoop=1;jettySize=auto;html=1;exitX=0.5;exitY=0;exitDx=0;exitDy=0;strokeColor=default;align=center;verticalAlign=middle;fontFamily=Helvetica;fontSize=11;fontColor=default;labelBackgroundColor=default;endArrow=classic;" edge="1" parent="WIyWlLk6GJQsqaUBKTNV-1" source="x7RqncecBhT4SDe1gUMY-3">
          <mxGeometry relative="1" as="geometry">
            <mxPoint x="405" y="340" as="targetPoint" />
            <Array as="points">
              <mxPoint x="556" y="340" />
            </Array>
          </mxGeometry>
        </mxCell>
        <mxCell id="x7RqncecBhT4SDe1gUMY-3" value="&quot;i&quot; ökar med 1" style="rounded=1;whiteSpace=wrap;html=1;fontSize=12;glass=0;strokeWidth=1;shadow=0;fillColor=#bac8d3;strokeColor=#23445d;" vertex="1" parent="WIyWlLk6GJQsqaUBKTNV-1">
          <mxGeometry x="511" y="385" width="90" height="30" as="geometry" />
        </mxCell>
        <mxCell id="x7RqncecBhT4SDe1gUMY-23" style="edgeStyle=orthogonalEdgeStyle;rounded=0;orthogonalLoop=1;jettySize=auto;html=1;exitX=0.5;exitY=1;exitDx=0;exitDy=0;" edge="1" parent="WIyWlLk6GJQsqaUBKTNV-1" source="x7RqncecBhT4SDe1gUMY-4" target="x7RqncecBhT4SDe1gUMY-7">
          <mxGeometry relative="1" as="geometry" />
        </mxCell>
        <mxCell id="x7RqncecBhT4SDe1gUMY-24" value="JA" style="edgeLabel;html=1;align=center;verticalAlign=middle;resizable=0;points=[];" vertex="1" connectable="0" parent="x7RqncecBhT4SDe1gUMY-23">
          <mxGeometry x="-0.2167" y="-3" relative="1" as="geometry">
            <mxPoint x="2" as="offset" />
          </mxGeometry>
        </mxCell>
        <mxCell id="x7RqncecBhT4SDe1gUMY-27" style="edgeStyle=orthogonalEdgeStyle;shape=connector;curved=0;rounded=1;orthogonalLoop=1;jettySize=auto;html=1;exitX=1;exitY=0.5;exitDx=0;exitDy=0;entryX=0.5;entryY=1;entryDx=0;entryDy=0;strokeColor=default;align=center;verticalAlign=middle;fontFamily=Helvetica;fontSize=11;fontColor=default;labelBackgroundColor=default;endArrow=classic;" edge="1" parent="WIyWlLk6GJQsqaUBKTNV-1" source="x7RqncecBhT4SDe1gUMY-4" target="x7RqncecBhT4SDe1gUMY-3">
          <mxGeometry relative="1" as="geometry" />
        </mxCell>
        <mxCell id="x7RqncecBhT4SDe1gUMY-28" value="NEJ" style="edgeLabel;html=1;align=center;verticalAlign=middle;resizable=0;points=[];fontFamily=Helvetica;fontSize=11;fontColor=default;labelBackgroundColor=default;" vertex="1" connectable="0" parent="x7RqncecBhT4SDe1gUMY-27">
          <mxGeometry x="-0.7524" relative="1" as="geometry">
            <mxPoint x="14" as="offset" />
          </mxGeometry>
        </mxCell>
        <mxCell id="x7RqncecBhT4SDe1gUMY-4" value="&lt;div&gt;&lt;br&gt;&lt;/div&gt;&lt;div&gt;Sökträff hittad&amp;nbsp;&lt;/div&gt;&lt;div&gt;vid index &quot;i&quot; i&amp;nbsp;&lt;/div&gt;&lt;div&gt;[inläggslistan]?&lt;/div&gt;&lt;div&gt;&lt;br&gt;&lt;/div&gt;" style="rhombus;whiteSpace=wrap;html=1;fillColor=#bac8d3;strokeColor=#23445d;" vertex="1" parent="WIyWlLk6GJQsqaUBKTNV-1">
          <mxGeometry x="340" y="480" width="130" height="110" as="geometry" />
        </mxCell>
        <mxCell id="x7RqncecBhT4SDe1gUMY-19" style="edgeStyle=orthogonalEdgeStyle;rounded=0;orthogonalLoop=1;jettySize=auto;html=1;exitX=0.5;exitY=1;exitDx=0;exitDy=0;entryX=0.5;entryY=0;entryDx=0;entryDy=0;" edge="1" parent="WIyWlLk6GJQsqaUBKTNV-1" source="x7RqncecBhT4SDe1gUMY-5" target="x7RqncecBhT4SDe1gUMY-4">
          <mxGeometry relative="1" as="geometry" />
        </mxCell>
        <mxCell id="x7RqncecBhT4SDe1gUMY-20" value="NEJ" style="edgeLabel;html=1;align=center;verticalAlign=middle;resizable=0;points=[];" vertex="1" connectable="0" parent="x7RqncecBhT4SDe1gUMY-19">
          <mxGeometry x="-0.3" y="-3" relative="1" as="geometry">
            <mxPoint x="2" as="offset" />
          </mxGeometry>
        </mxCell>
        <mxCell id="x7RqncecBhT4SDe1gUMY-21" style="edgeStyle=orthogonalEdgeStyle;rounded=0;orthogonalLoop=1;jettySize=auto;html=1;exitX=0;exitY=0.5;exitDx=0;exitDy=0;entryX=1;entryY=0.5;entryDx=0;entryDy=0;" edge="1" parent="WIyWlLk6GJQsqaUBKTNV-1" source="x7RqncecBhT4SDe1gUMY-5" target="x7RqncecBhT4SDe1gUMY-9">
          <mxGeometry relative="1" as="geometry" />
        </mxCell>
        <mxCell id="x7RqncecBhT4SDe1gUMY-22" value="JA" style="edgeLabel;html=1;align=center;verticalAlign=middle;resizable=0;points=[];" vertex="1" connectable="0" parent="x7RqncecBhT4SDe1gUMY-21">
          <mxGeometry x="-0.1837" y="-3" relative="1" as="geometry">
            <mxPoint y="3" as="offset" />
          </mxGeometry>
        </mxCell>
        <mxCell id="x7RqncecBhT4SDe1gUMY-5" value="&lt;div&gt;Är &quot;i&quot; större&amp;nbsp;&lt;/div&gt;&lt;div&gt;än [inläggslistans]&amp;nbsp;&lt;/div&gt;&lt;div&gt;längd?&lt;/div&gt;" style="rhombus;whiteSpace=wrap;html=1;fillColor=#bac8d3;strokeColor=#23445d;" vertex="1" parent="WIyWlLk6GJQsqaUBKTNV-1">
          <mxGeometry x="340" y="360" width="130" height="80" as="geometry" />
        </mxCell>
        <mxCell id="x7RqncecBhT4SDe1gUMY-18" style="edgeStyle=orthogonalEdgeStyle;rounded=0;orthogonalLoop=1;jettySize=auto;html=1;exitX=0.5;exitY=1;exitDx=0;exitDy=0;entryX=0.5;entryY=0;entryDx=0;entryDy=0;" edge="1" parent="WIyWlLk6GJQsqaUBKTNV-1" source="x7RqncecBhT4SDe1gUMY-6" target="x7RqncecBhT4SDe1gUMY-5">
          <mxGeometry relative="1" as="geometry" />
        </mxCell>
        <mxCell id="x7RqncecBhT4SDe1gUMY-6" value="&quot;i&quot; får värdet 0" style="rounded=1;whiteSpace=wrap;html=1;fontSize=12;glass=0;strokeWidth=1;shadow=0;fillColor=#bac8d3;strokeColor=#23445d;" vertex="1" parent="WIyWlLk6GJQsqaUBKTNV-1">
          <mxGeometry x="360" y="290" width="90" height="30" as="geometry" />
        </mxCell>
        <mxCell id="x7RqncecBhT4SDe1gUMY-25" style="edgeStyle=orthogonalEdgeStyle;rounded=1;orthogonalLoop=1;jettySize=auto;html=1;exitX=1;exitY=0.5;exitDx=0;exitDy=0;entryX=0.5;entryY=1;entryDx=0;entryDy=0;curved=0;" edge="1" parent="WIyWlLk6GJQsqaUBKTNV-1" source="x7RqncecBhT4SDe1gUMY-7" target="x7RqncecBhT4SDe1gUMY-3">
          <mxGeometry relative="1" as="geometry" />
        </mxCell>
        <mxCell id="x7RqncecBhT4SDe1gUMY-7" value="Lägg till &quot;i&quot; i [matchlistan]" style="rounded=1;whiteSpace=wrap;html=1;fillColor=#bac8d3;strokeColor=#23445d;" vertex="1" parent="WIyWlLk6GJQsqaUBKTNV-1">
          <mxGeometry x="361.5" y="630" width="87" height="40" as="geometry" />
        </mxCell>
        <mxCell id="x7RqncecBhT4SDe1gUMY-29" style="edgeStyle=orthogonalEdgeStyle;shape=connector;curved=0;rounded=1;orthogonalLoop=1;jettySize=auto;html=1;exitX=0.5;exitY=0;exitDx=0;exitDy=0;entryX=0.5;entryY=1;entryDx=0;entryDy=0;strokeColor=default;align=center;verticalAlign=middle;fontFamily=Helvetica;fontSize=11;fontColor=default;labelBackgroundColor=default;endArrow=classic;" edge="1" parent="WIyWlLk6GJQsqaUBKTNV-1" source="x7RqncecBhT4SDe1gUMY-9" target="x7RqncecBhT4SDe1gUMY-11">
          <mxGeometry relative="1" as="geometry" />
        </mxCell>
        <mxCell id="x7RqncecBhT4SDe1gUMY-30" value="JA" style="edgeLabel;html=1;align=center;verticalAlign=middle;resizable=0;points=[];fontFamily=Helvetica;fontSize=11;fontColor=default;labelBackgroundColor=default;" vertex="1" connectable="0" parent="x7RqncecBhT4SDe1gUMY-29">
          <mxGeometry x="-0.1332" y="1" relative="1" as="geometry">
            <mxPoint as="offset" />
          </mxGeometry>
        </mxCell>
        <mxCell id="x7RqncecBhT4SDe1gUMY-32" style="edgeStyle=orthogonalEdgeStyle;shape=connector;curved=0;rounded=1;orthogonalLoop=1;jettySize=auto;html=1;exitX=0.5;exitY=1;exitDx=0;exitDy=0;entryX=0.5;entryY=0;entryDx=0;entryDy=0;strokeColor=default;align=center;verticalAlign=middle;fontFamily=Helvetica;fontSize=11;fontColor=default;labelBackgroundColor=default;endArrow=classic;" edge="1" parent="WIyWlLk6GJQsqaUBKTNV-1" source="x7RqncecBhT4SDe1gUMY-9" target="x7RqncecBhT4SDe1gUMY-10">
          <mxGeometry relative="1" as="geometry" />
        </mxCell>
        <mxCell id="x7RqncecBhT4SDe1gUMY-33" value="NEJ" style="edgeLabel;html=1;align=center;verticalAlign=middle;resizable=0;points=[];fontFamily=Helvetica;fontSize=11;fontColor=default;labelBackgroundColor=default;" vertex="1" connectable="0" parent="x7RqncecBhT4SDe1gUMY-32">
          <mxGeometry x="-0.1399" relative="1" as="geometry">
            <mxPoint x="-1" as="offset" />
          </mxGeometry>
        </mxCell>
        <mxCell id="x7RqncecBhT4SDe1gUMY-9" value="&lt;div&gt;Är&amp;nbsp;&lt;/div&gt;&lt;div&gt;&amp;nbsp;[matchlistan]&amp;nbsp;&lt;/div&gt;&lt;div&gt;tom?&lt;/div&gt;" style="rhombus;whiteSpace=wrap;html=1;fillColor=#bac8d3;strokeColor=#23445d;" vertex="1" parent="WIyWlLk6GJQsqaUBKTNV-1">
          <mxGeometry x="191" y="362.5" width="100" height="75" as="geometry" />
        </mxCell>
        <mxCell id="x7RqncecBhT4SDe1gUMY-34" style="edgeStyle=orthogonalEdgeStyle;shape=connector;curved=0;rounded=1;orthogonalLoop=1;jettySize=auto;html=1;exitX=0;exitY=0.5;exitDx=0;exitDy=0;entryX=0.5;entryY=1;entryDx=0;entryDy=0;strokeColor=default;align=center;verticalAlign=middle;fontFamily=Helvetica;fontSize=11;fontColor=default;labelBackgroundColor=default;endArrow=classic;" edge="1" parent="WIyWlLk6GJQsqaUBKTNV-1" source="x7RqncecBhT4SDe1gUMY-10" target="x7RqncecBhT4SDe1gUMY-14">
          <mxGeometry relative="1" as="geometry" />
        </mxCell>
        <mxCell id="x7RqncecBhT4SDe1gUMY-10" value="Skriv ut alla inlägg i [inläggslistan] med de index som sparats i [matchlistan]" style="rounded=1;whiteSpace=wrap;html=1;fontSize=12;glass=0;strokeWidth=1;shadow=0;fillColor=#bac8d3;strokeColor=#23445d;" vertex="1" parent="WIyWlLk6GJQsqaUBKTNV-1">
          <mxGeometry x="176" y="500" width="130" height="70" as="geometry" />
        </mxCell>
        <mxCell id="x7RqncecBhT4SDe1gUMY-31" style="edgeStyle=orthogonalEdgeStyle;shape=connector;curved=0;rounded=1;orthogonalLoop=1;jettySize=auto;html=1;exitX=0;exitY=0.5;exitDx=0;exitDy=0;strokeColor=default;align=center;verticalAlign=middle;fontFamily=Helvetica;fontSize=11;fontColor=default;labelBackgroundColor=default;endArrow=classic;" edge="1" parent="WIyWlLk6GJQsqaUBKTNV-1" source="x7RqncecBhT4SDe1gUMY-11" target="x7RqncecBhT4SDe1gUMY-14">
          <mxGeometry relative="1" as="geometry" />
        </mxCell>
        <mxCell id="x7RqncecBhT4SDe1gUMY-11" value="Meddela att inga sökresultat hittats" style="rounded=1;whiteSpace=wrap;html=1;fontSize=12;glass=0;strokeWidth=1;shadow=0;fillColor=#bac8d3;strokeColor=#23445d;" vertex="1" parent="WIyWlLk6GJQsqaUBKTNV-1">
          <mxGeometry x="188.5" y="260" width="105" height="40" as="geometry" />
        </mxCell>
        <mxCell id="x7RqncecBhT4SDe1gUMY-15" style="edgeStyle=orthogonalEdgeStyle;rounded=1;orthogonalLoop=1;jettySize=auto;html=1;exitX=0.5;exitY=1;exitDx=0;exitDy=0;entryX=0.5;entryY=0;entryDx=0;entryDy=0;curved=0;" edge="1" parent="WIyWlLk6GJQsqaUBKTNV-1" source="x7RqncecBhT4SDe1gUMY-12" target="WIyWlLk6GJQsqaUBKTNV-3">
          <mxGeometry relative="1" as="geometry" />
        </mxCell>
        <mxCell id="x7RqncecBhT4SDe1gUMY-12" value="START" style="ellipse;whiteSpace=wrap;html=1;aspect=fixed;fillColor=#d5e8d4;strokeColor=#82b366;" vertex="1" parent="WIyWlLk6GJQsqaUBKTNV-1">
          <mxGeometry x="377.25" y="35.5" width="54.5" height="54.5" as="geometry" />
        </mxCell>
        <mxCell id="x7RqncecBhT4SDe1gUMY-14" value="STOPP" style="ellipse;whiteSpace=wrap;html=1;aspect=fixed;fillColor=#f8cecc;strokeColor=#b85450;" vertex="1" parent="WIyWlLk6GJQsqaUBKTNV-1">
          <mxGeometry x="70" y="372.75" width="54.5" height="54.5" as="geometry" />
        </mxCell>
      </root>
    </mxGraphModel>
  </diagram>
</mxfile>
